<?xml version="1.0" encoding="UTF-8"?>
<svg width="20px" height="26px" viewBox="0 0 20 26" version="1.1" xmlns="http://www.w3.org/2000/svg" xmlns:xlink="http://www.w3.org/1999/xlink">
    <!-- Generator: Sketch 47.1 (45422) - http://www.bohemiancoding.com/sketch -->
    <title>002-bell</title>
    <desc>Created with Sketch.</desc>
    <defs></defs>
    <g id="Page-1" stroke="none" stroke-width="1" fill="none" fill-rule="evenodd">
        <g id="Home" transform="translate(-167.000000, -1442.000000)" fill-rule="nonzero" fill="#9080FF">
            <g id="Notifications" transform="translate(146.000000, 1425.000000)">
                <g id="Icon">
                    <g id="002-bell" transform="translate(21.000000, 17.000000)">
                        <path d="M6.95887955,22.8638348 C6.95882353,22.8706174 6.95837535,22.8773435 6.95837535,22.8841261 C6.95837535,24.584187 8.32436975,25.9623565 10.0094118,25.9623565 C11.6944538,25.9623565 13.0604482,24.584187 13.0604482,22.8841261 C13.0604482,22.8773435 13.06,22.8706174 13.059944,22.8638348 L6.95887955,22.8638348 Z" id="Shape"></path>
                        <path d="M19.7506443,19.0160609 L17.0047059,14.9463826 C17.0047059,13.700587 17.0047059,10.6564957 17.0047059,9.86903478 C17.0047059,6.4448913 14.5876751,3.59065652 11.3811204,2.94743913 L11.3811204,1.38393478 C11.3810644,0.619647826 10.7669468,0 10.0093557,0 C9.25176471,0 8.63764706,0.619647826 8.63764706,1.38393478 L8.63764706,2.94749565 C5.43109244,3.59076957 3.01406162,6.44500435 3.01406162,9.8690913 C3.01406162,11.2095609 3.01406162,14.1694913 3.01406162,14.9464391 L0.268123249,19.0161174 C-0.0211204482,19.4447783 -0.0517086835,19.9996522 0.188627451,20.4580435 C0.428963585,20.9164348 0.900784314,21.203113 1.41478992,21.203113 L18.6039216,21.203113 C19.1179272,21.203113 19.5897479,20.9163783 19.830084,20.4580435 C20.0704762,19.9995957 20.0398319,19.4447217 19.7506443,19.0160609 Z" id="Shape"></path>
                    </g>
                </g>
            </g>
        </g>
    </g>
</svg>