<svg id="Layer_1" data-name="Layer 1" xmlns="http://www.w3.org/2000/svg" viewBox="0 0 253.23 94.47"><defs><style>.cls-1{fill:#29abe2;}</style></defs><path d="M236.73,33.45l9.74,21,9.89-21h16.11l-21.3,40.92h-9.65L220.46,33.45Z" transform="translate(-148.14 7.07)"/><path d="M317.87,45.49V74.37H303.43V45.49h-4.79v-12h4.79V21.16h14.44V33.45h8.21v12Z" transform="translate(-148.14 7.07)"/><path d="M331.51,33.45H346v6.7a16.64,16.64,0,0,1,5.66-5.63,15.26,15.26,0,0,1,7.82-2h1.23a8.5,8.5,0,0,1,1.56.16v13.8A13.67,13.67,0,0,0,356,45.1c-3.35,0-5.87,1-7.54,3S346,53,346,56.82V74.37H331.51Z" transform="translate(-148.14 7.07)"/><path d="M383.12,33.45V74.37H368.68V33.45Z" transform="translate(-148.14 7.07)"/><text x="-148.14" y="7.07"/><rect x="129.28" y="40.52" width="14.44" height="40.93"/><circle class="cls-1" cx="136.39" cy="28.06" r="8.15"/><circle class="cls-1" cx="227.84" cy="28.06" r="8.15"/><path class="cls-1" d="M209.48,15.3c-2.78-2.77-14.7,3.78-18.37,2.2a30.1,30.1,0,0,0-23.46,0c-3.67,1.58-16.08-5-18.85-2.2S153,30,151.46,33.68a30.12,30.12,0,0,0,0,23.47,30.71,30.71,0,0,0,16.19,16.19,30.1,30.1,0,0,0,23.46,0A30.71,30.71,0,0,0,207.3,57.15a30.12,30.12,0,0,0,0-23.47C205.72,30,212.25,18.08,209.48,15.3ZM164.19,36.58a4.08,4.08,0,1,1,4.08,4.08A4.08,4.08,0,0,1,164.19,36.58Zm26.35,22.19c-1,1.38-4.65,3.23-10.59,3.23-4,0-9.43-1.68-11-3.23-.77-.77-2-3.64-1.54-4.11.61,0,13.4,0,13.61,0,.71,0,2.11,4.78,3.61,4.79.79,0,2.3-4.79,3.06-4.79s2.81,0,3.6,0C191.76,55.13,191.31,57.74,190.54,58.77ZM190,40.66a4.08,4.08,0,1,1,4.08-4.08A4.08,4.08,0,0,1,190,40.66Z" transform="translate(-148.14 7.07)"/><text x="-148.14" y="7.07"/><text x="-148.14" y="7.07"/></svg>